<svg width="40" height="40" viewBox="0 0 40 40" fill="none" xmlns="http://www.w3.org/2000/svg">
<rect width="40" height="40" rx="20" fill="#DCDAFE"/>
<path d="M27.514 23.6152L25.1665 18.1252C24.739 17.1202 24.1015 16.5502 23.374 16.5127C22.654 16.4752 21.9565 16.9777 21.424 17.9377L19.999 20.4952C19.699 21.0352 19.2715 21.3577 18.8065 21.3952C18.334 21.4402 17.8615 21.1927 17.479 20.7052L17.314 20.4952C16.7815 19.8277 16.1215 19.5052 15.4465 19.5727C14.7715 19.6402 14.194 20.1052 13.8115 20.8627L12.514 23.4502C12.049 24.3877 12.094 25.4752 12.6415 26.3602C13.189 27.2452 14.1415 27.7777 15.184 27.7777H24.754C25.759 27.7777 26.6965 27.2752 27.2515 26.4352C27.8215 25.5952 27.9115 24.5377 27.514 23.6152Z" fill="#1A0DF5"/>
<path d="M16.2274 17.2858C17.6274 17.2858 18.7624 16.1509 18.7624 14.7508C18.7624 13.3508 17.6274 12.2158 16.2274 12.2158C14.8273 12.2158 13.6924 13.3508 13.6924 14.7508C13.6924 16.1509 14.8273 17.2858 16.2274 17.2858Z" fill="#1A0DF5"/>
</svg>
