<svg width="40" height="40" viewBox="0 0 40 40" fill="none" xmlns="http://www.w3.org/2000/svg">
<rect width="40" height="40" rx="20" fill="#DCDAFE"/>
<path d="M14.3148 28V12.8727H20.283C21.4254 12.8727 22.4004 13.0771 23.208 13.4858C24.0205 13.8896 24.6384 14.4633 25.0619 15.2068C25.4903 15.9455 25.7045 16.8146 25.7045 17.8142C25.7045 18.8188 25.4879 19.683 25.0545 20.4068C24.6212 21.1258 23.9934 21.6773 23.171 22.0614C22.3536 22.4455 21.3638 22.6375 20.2017 22.6375H16.2057V20.067H19.6847C20.2953 20.067 20.8025 19.9833 21.2062 19.8159C21.61 19.6485 21.9104 19.3973 22.1074 19.0625C22.3093 18.7277 22.4102 18.3116 22.4102 17.8142C22.4102 17.3119 22.3093 16.8884 22.1074 16.5438C21.9104 16.1991 21.6076 15.9381 21.1989 15.7608C20.7951 15.5786 20.2854 15.4875 19.6699 15.4875H17.5131V28H14.3148ZM22.4841 21.1159L26.2437 28H22.7131L19.0347 21.1159H22.4841Z" fill="#2A25F3"/>
</svg>
