<svg width="20" height="20" viewBox="0 0 20 20" fill="none" xmlns="http://www.w3.org/2000/svg">
<g clip-path="url(#clip0_24_387)">
<path d="M17.4978 5.32477C14.8072 5.05813 12.1005 4.92078 9.40182 4.92078C7.80201 4.92078 6.2022 5.00157 4.60239 5.16317L2.9541 5.32477" stroke="#3D3D3D" stroke-width="1.61597" stroke-linecap="round" stroke-linejoin="round"/>
<path d="M7.39795 4.50872L7.57571 3.45026C7.70498 2.68268 7.80194 2.10901 9.16744 2.10901H11.2844C12.6499 2.10901 12.7549 2.715 12.8761 3.45834L13.0538 4.50872" stroke="#3D3D3D" stroke-width="1.61597" stroke-linecap="round" stroke-linejoin="round"/>
<path d="M15.7603 7.87805L15.2351 16.0145C15.1463 17.283 15.0735 18.2687 12.8193 18.2687H7.63198C5.37771 18.2687 5.30499 17.283 5.21611 16.0145L4.69092 7.87805" stroke="#3D3D3D" stroke-width="1.61597" stroke-linecap="round" stroke-linejoin="round"/>
<path d="M8.87646 13.8248H11.5671" stroke="#3D3D3D" stroke-width="1.61597" stroke-linecap="round" stroke-linejoin="round"/>
<path d="M8.20605 10.5929H12.246" stroke="#3D3D3D" stroke-width="1.61597" stroke-linecap="round" stroke-linejoin="round"/>
</g>
<defs>
<clipPath id="clip0_24_387">
<rect width="19.3916" height="19.3916" fill="white" transform="translate(0.530273 0.493042)"/>
</clipPath>
</defs>
</svg>
